%TF.GenerationSoftware,KiCad,Pcbnew,7.0.1-3b83917a11~172~ubuntu22.04.1*%
%TF.CreationDate,2023-05-08T21:49:58+01:00*%
%TF.ProjectId,lm27762,6c6d3237-3736-4322-9e6b-696361645f70,rev?*%
%TF.SameCoordinates,Original*%
%TF.FileFunction,Legend,Top*%
%TF.FilePolarity,Positive*%
%FSLAX46Y46*%
G04 Gerber Fmt 4.6, Leading zero omitted, Abs format (unit mm)*
G04 Created by KiCad (PCBNEW 7.0.1-3b83917a11~172~ubuntu22.04.1) date 2023-05-08 21:49:58*
%MOMM*%
%LPD*%
G01*
G04 APERTURE LIST*
%ADD10C,0.150000*%
%ADD11C,0.153000*%
%ADD12C,0.120000*%
%ADD13C,0.100000*%
G04 APERTURE END LIST*
D10*
X108350038Y-63292019D02*
X108921466Y-63292019D01*
X108635752Y-64292019D02*
X108635752Y-63292019D01*
X109254800Y-64292019D02*
X109254800Y-63292019D01*
X109254800Y-63292019D02*
X109635752Y-63292019D01*
X109635752Y-63292019D02*
X109730990Y-63339638D01*
X109730990Y-63339638D02*
X109778609Y-63387257D01*
X109778609Y-63387257D02*
X109826228Y-63482495D01*
X109826228Y-63482495D02*
X109826228Y-63625352D01*
X109826228Y-63625352D02*
X109778609Y-63720590D01*
X109778609Y-63720590D02*
X109730990Y-63768209D01*
X109730990Y-63768209D02*
X109635752Y-63815828D01*
X109635752Y-63815828D02*
X109254800Y-63815828D01*
X110683371Y-63625352D02*
X110683371Y-64292019D01*
X110445276Y-63244400D02*
X110207181Y-63958685D01*
X110207181Y-63958685D02*
X110826228Y-63958685D01*
X118840238Y-58059619D02*
X119411666Y-58059619D01*
X119125952Y-59059619D02*
X119125952Y-58059619D01*
X119745000Y-59059619D02*
X119745000Y-58059619D01*
X119745000Y-58059619D02*
X120125952Y-58059619D01*
X120125952Y-58059619D02*
X120221190Y-58107238D01*
X120221190Y-58107238D02*
X120268809Y-58154857D01*
X120268809Y-58154857D02*
X120316428Y-58250095D01*
X120316428Y-58250095D02*
X120316428Y-58392952D01*
X120316428Y-58392952D02*
X120268809Y-58488190D01*
X120268809Y-58488190D02*
X120221190Y-58535809D01*
X120221190Y-58535809D02*
X120125952Y-58583428D01*
X120125952Y-58583428D02*
X119745000Y-58583428D01*
X120649762Y-58059619D02*
X121316428Y-58059619D01*
X121316428Y-58059619D02*
X120887857Y-59059619D01*
X108273838Y-67940219D02*
X108845266Y-67940219D01*
X108559552Y-68940219D02*
X108559552Y-67940219D01*
X109178600Y-68940219D02*
X109178600Y-67940219D01*
X109178600Y-67940219D02*
X109559552Y-67940219D01*
X109559552Y-67940219D02*
X109654790Y-67987838D01*
X109654790Y-67987838D02*
X109702409Y-68035457D01*
X109702409Y-68035457D02*
X109750028Y-68130695D01*
X109750028Y-68130695D02*
X109750028Y-68273552D01*
X109750028Y-68273552D02*
X109702409Y-68368790D01*
X109702409Y-68368790D02*
X109654790Y-68416409D01*
X109654790Y-68416409D02*
X109559552Y-68464028D01*
X109559552Y-68464028D02*
X109178600Y-68464028D01*
X110607171Y-67940219D02*
X110416695Y-67940219D01*
X110416695Y-67940219D02*
X110321457Y-67987838D01*
X110321457Y-67987838D02*
X110273838Y-68035457D01*
X110273838Y-68035457D02*
X110178600Y-68178314D01*
X110178600Y-68178314D02*
X110130981Y-68368790D01*
X110130981Y-68368790D02*
X110130981Y-68749742D01*
X110130981Y-68749742D02*
X110178600Y-68844980D01*
X110178600Y-68844980D02*
X110226219Y-68892600D01*
X110226219Y-68892600D02*
X110321457Y-68940219D01*
X110321457Y-68940219D02*
X110511933Y-68940219D01*
X110511933Y-68940219D02*
X110607171Y-68892600D01*
X110607171Y-68892600D02*
X110654790Y-68844980D01*
X110654790Y-68844980D02*
X110702409Y-68749742D01*
X110702409Y-68749742D02*
X110702409Y-68511647D01*
X110702409Y-68511647D02*
X110654790Y-68416409D01*
X110654790Y-68416409D02*
X110607171Y-68368790D01*
X110607171Y-68368790D02*
X110511933Y-68321171D01*
X110511933Y-68321171D02*
X110321457Y-68321171D01*
X110321457Y-68321171D02*
X110226219Y-68368790D01*
X110226219Y-68368790D02*
X110178600Y-68416409D01*
X110178600Y-68416409D02*
X110130981Y-68511647D01*
X110872998Y-57535619D02*
X110396808Y-57535619D01*
X110396808Y-57535619D02*
X110396808Y-56535619D01*
X111206332Y-57535619D02*
X111206332Y-56535619D01*
X111206332Y-56535619D02*
X111539665Y-57249904D01*
X111539665Y-57249904D02*
X111872998Y-56535619D01*
X111872998Y-56535619D02*
X111872998Y-57535619D01*
X112301570Y-56630857D02*
X112349189Y-56583238D01*
X112349189Y-56583238D02*
X112444427Y-56535619D01*
X112444427Y-56535619D02*
X112682522Y-56535619D01*
X112682522Y-56535619D02*
X112777760Y-56583238D01*
X112777760Y-56583238D02*
X112825379Y-56630857D01*
X112825379Y-56630857D02*
X112872998Y-56726095D01*
X112872998Y-56726095D02*
X112872998Y-56821333D01*
X112872998Y-56821333D02*
X112825379Y-56964190D01*
X112825379Y-56964190D02*
X112253951Y-57535619D01*
X112253951Y-57535619D02*
X112872998Y-57535619D01*
X113206332Y-56535619D02*
X113872998Y-56535619D01*
X113872998Y-56535619D02*
X113444427Y-57535619D01*
X114158713Y-56535619D02*
X114825379Y-56535619D01*
X114825379Y-56535619D02*
X114396808Y-57535619D01*
X115634903Y-56535619D02*
X115444427Y-56535619D01*
X115444427Y-56535619D02*
X115349189Y-56583238D01*
X115349189Y-56583238D02*
X115301570Y-56630857D01*
X115301570Y-56630857D02*
X115206332Y-56773714D01*
X115206332Y-56773714D02*
X115158713Y-56964190D01*
X115158713Y-56964190D02*
X115158713Y-57345142D01*
X115158713Y-57345142D02*
X115206332Y-57440380D01*
X115206332Y-57440380D02*
X115253951Y-57488000D01*
X115253951Y-57488000D02*
X115349189Y-57535619D01*
X115349189Y-57535619D02*
X115539665Y-57535619D01*
X115539665Y-57535619D02*
X115634903Y-57488000D01*
X115634903Y-57488000D02*
X115682522Y-57440380D01*
X115682522Y-57440380D02*
X115730141Y-57345142D01*
X115730141Y-57345142D02*
X115730141Y-57107047D01*
X115730141Y-57107047D02*
X115682522Y-57011809D01*
X115682522Y-57011809D02*
X115634903Y-56964190D01*
X115634903Y-56964190D02*
X115539665Y-56916571D01*
X115539665Y-56916571D02*
X115349189Y-56916571D01*
X115349189Y-56916571D02*
X115253951Y-56964190D01*
X115253951Y-56964190D02*
X115206332Y-57011809D01*
X115206332Y-57011809D02*
X115158713Y-57107047D01*
X116111094Y-56630857D02*
X116158713Y-56583238D01*
X116158713Y-56583238D02*
X116253951Y-56535619D01*
X116253951Y-56535619D02*
X116492046Y-56535619D01*
X116492046Y-56535619D02*
X116587284Y-56583238D01*
X116587284Y-56583238D02*
X116634903Y-56630857D01*
X116634903Y-56630857D02*
X116682522Y-56726095D01*
X116682522Y-56726095D02*
X116682522Y-56821333D01*
X116682522Y-56821333D02*
X116634903Y-56964190D01*
X116634903Y-56964190D02*
X116063475Y-57535619D01*
X116063475Y-57535619D02*
X116682522Y-57535619D01*
X118444427Y-57535619D02*
X118111094Y-57059428D01*
X117872999Y-57535619D02*
X117872999Y-56535619D01*
X117872999Y-56535619D02*
X118253951Y-56535619D01*
X118253951Y-56535619D02*
X118349189Y-56583238D01*
X118349189Y-56583238D02*
X118396808Y-56630857D01*
X118396808Y-56630857D02*
X118444427Y-56726095D01*
X118444427Y-56726095D02*
X118444427Y-56868952D01*
X118444427Y-56868952D02*
X118396808Y-56964190D01*
X118396808Y-56964190D02*
X118349189Y-57011809D01*
X118349189Y-57011809D02*
X118253951Y-57059428D01*
X118253951Y-57059428D02*
X117872999Y-57059428D01*
X118872999Y-57011809D02*
X119206332Y-57011809D01*
X119349189Y-57535619D02*
X118872999Y-57535619D01*
X118872999Y-57535619D02*
X118872999Y-56535619D01*
X118872999Y-56535619D02*
X119349189Y-56535619D01*
X119634904Y-56535619D02*
X119968237Y-57535619D01*
X119968237Y-57535619D02*
X120301570Y-56535619D01*
X120587285Y-57249904D02*
X121063475Y-57249904D01*
X120492047Y-57535619D02*
X120825380Y-56535619D01*
X120825380Y-56535619D02*
X121158713Y-57535619D01*
X122777761Y-57535619D02*
X122206333Y-57535619D01*
X122492047Y-57535619D02*
X122492047Y-56535619D01*
X122492047Y-56535619D02*
X122396809Y-56678476D01*
X122396809Y-56678476D02*
X122301571Y-56773714D01*
X122301571Y-56773714D02*
X122206333Y-56821333D01*
X123253952Y-57535619D02*
X123444428Y-57535619D01*
X123444428Y-57535619D02*
X123539666Y-57488000D01*
X123539666Y-57488000D02*
X123587285Y-57440380D01*
X123587285Y-57440380D02*
X123682523Y-57297523D01*
X123682523Y-57297523D02*
X123730142Y-57107047D01*
X123730142Y-57107047D02*
X123730142Y-56726095D01*
X123730142Y-56726095D02*
X123682523Y-56630857D01*
X123682523Y-56630857D02*
X123634904Y-56583238D01*
X123634904Y-56583238D02*
X123539666Y-56535619D01*
X123539666Y-56535619D02*
X123349190Y-56535619D01*
X123349190Y-56535619D02*
X123253952Y-56583238D01*
X123253952Y-56583238D02*
X123206333Y-56630857D01*
X123206333Y-56630857D02*
X123158714Y-56726095D01*
X123158714Y-56726095D02*
X123158714Y-56964190D01*
X123158714Y-56964190D02*
X123206333Y-57059428D01*
X123206333Y-57059428D02*
X123253952Y-57107047D01*
X123253952Y-57107047D02*
X123349190Y-57154666D01*
X123349190Y-57154666D02*
X123539666Y-57154666D01*
X123539666Y-57154666D02*
X123634904Y-57107047D01*
X123634904Y-57107047D02*
X123682523Y-57059428D01*
X123682523Y-57059428D02*
X123730142Y-56964190D01*
X124872999Y-56488000D02*
X124015857Y-57773714D01*
X125158714Y-56630857D02*
X125206333Y-56583238D01*
X125206333Y-56583238D02*
X125301571Y-56535619D01*
X125301571Y-56535619D02*
X125539666Y-56535619D01*
X125539666Y-56535619D02*
X125634904Y-56583238D01*
X125634904Y-56583238D02*
X125682523Y-56630857D01*
X125682523Y-56630857D02*
X125730142Y-56726095D01*
X125730142Y-56726095D02*
X125730142Y-56821333D01*
X125730142Y-56821333D02*
X125682523Y-56964190D01*
X125682523Y-56964190D02*
X125111095Y-57535619D01*
X125111095Y-57535619D02*
X125730142Y-57535619D01*
X126063476Y-56535619D02*
X126682523Y-56535619D01*
X126682523Y-56535619D02*
X126349190Y-56916571D01*
X126349190Y-56916571D02*
X126492047Y-56916571D01*
X126492047Y-56916571D02*
X126587285Y-56964190D01*
X126587285Y-56964190D02*
X126634904Y-57011809D01*
X126634904Y-57011809D02*
X126682523Y-57107047D01*
X126682523Y-57107047D02*
X126682523Y-57345142D01*
X126682523Y-57345142D02*
X126634904Y-57440380D01*
X126634904Y-57440380D02*
X126587285Y-57488000D01*
X126587285Y-57488000D02*
X126492047Y-57535619D01*
X126492047Y-57535619D02*
X126206333Y-57535619D01*
X126206333Y-57535619D02*
X126111095Y-57488000D01*
X126111095Y-57488000D02*
X126063476Y-57440380D01*
D11*
X123766238Y-68580095D02*
X123718619Y-68675333D01*
X123718619Y-68675333D02*
X123718619Y-68818190D01*
X123718619Y-68818190D02*
X123766238Y-68961047D01*
X123766238Y-68961047D02*
X123861476Y-69056285D01*
X123861476Y-69056285D02*
X123956714Y-69103904D01*
X123956714Y-69103904D02*
X124147190Y-69151523D01*
X124147190Y-69151523D02*
X124290047Y-69151523D01*
X124290047Y-69151523D02*
X124480523Y-69103904D01*
X124480523Y-69103904D02*
X124575761Y-69056285D01*
X124575761Y-69056285D02*
X124671000Y-68961047D01*
X124671000Y-68961047D02*
X124718619Y-68818190D01*
X124718619Y-68818190D02*
X124718619Y-68722952D01*
X124718619Y-68722952D02*
X124671000Y-68580095D01*
X124671000Y-68580095D02*
X124623380Y-68532476D01*
X124623380Y-68532476D02*
X124290047Y-68532476D01*
X124290047Y-68532476D02*
X124290047Y-68722952D01*
X124718619Y-68103904D02*
X123718619Y-68103904D01*
X123718619Y-68103904D02*
X124718619Y-67532476D01*
X124718619Y-67532476D02*
X123718619Y-67532476D01*
X124718619Y-67056285D02*
X123718619Y-67056285D01*
X123718619Y-67056285D02*
X123718619Y-66818190D01*
X123718619Y-66818190D02*
X123766238Y-66675333D01*
X123766238Y-66675333D02*
X123861476Y-66580095D01*
X123861476Y-66580095D02*
X123956714Y-66532476D01*
X123956714Y-66532476D02*
X124147190Y-66484857D01*
X124147190Y-66484857D02*
X124290047Y-66484857D01*
X124290047Y-66484857D02*
X124480523Y-66532476D01*
X124480523Y-66532476D02*
X124575761Y-66580095D01*
X124575761Y-66580095D02*
X124671000Y-66675333D01*
X124671000Y-66675333D02*
X124718619Y-66818190D01*
X124718619Y-66818190D02*
X124718619Y-67056285D01*
X124337666Y-65294380D02*
X124337666Y-64532476D01*
X124337666Y-62532475D02*
X124337666Y-61770571D01*
X124718619Y-62151523D02*
X123956714Y-62151523D01*
X123718619Y-60675332D02*
X124718619Y-60341999D01*
X124718619Y-60341999D02*
X123718619Y-60008666D01*
X124718619Y-59675332D02*
X123718619Y-59675332D01*
X124718619Y-59199142D02*
X123718619Y-59199142D01*
X123718619Y-59199142D02*
X124718619Y-58627714D01*
X124718619Y-58627714D02*
X123718619Y-58627714D01*
D10*
%TO.C,CO1*%
X109545523Y-61454380D02*
X109497904Y-61502000D01*
X109497904Y-61502000D02*
X109355047Y-61549619D01*
X109355047Y-61549619D02*
X109259809Y-61549619D01*
X109259809Y-61549619D02*
X109116952Y-61502000D01*
X109116952Y-61502000D02*
X109021714Y-61406761D01*
X109021714Y-61406761D02*
X108974095Y-61311523D01*
X108974095Y-61311523D02*
X108926476Y-61121047D01*
X108926476Y-61121047D02*
X108926476Y-60978190D01*
X108926476Y-60978190D02*
X108974095Y-60787714D01*
X108974095Y-60787714D02*
X109021714Y-60692476D01*
X109021714Y-60692476D02*
X109116952Y-60597238D01*
X109116952Y-60597238D02*
X109259809Y-60549619D01*
X109259809Y-60549619D02*
X109355047Y-60549619D01*
X109355047Y-60549619D02*
X109497904Y-60597238D01*
X109497904Y-60597238D02*
X109545523Y-60644857D01*
X110164571Y-60549619D02*
X110355047Y-60549619D01*
X110355047Y-60549619D02*
X110450285Y-60597238D01*
X110450285Y-60597238D02*
X110545523Y-60692476D01*
X110545523Y-60692476D02*
X110593142Y-60882952D01*
X110593142Y-60882952D02*
X110593142Y-61216285D01*
X110593142Y-61216285D02*
X110545523Y-61406761D01*
X110545523Y-61406761D02*
X110450285Y-61502000D01*
X110450285Y-61502000D02*
X110355047Y-61549619D01*
X110355047Y-61549619D02*
X110164571Y-61549619D01*
X110164571Y-61549619D02*
X110069333Y-61502000D01*
X110069333Y-61502000D02*
X109974095Y-61406761D01*
X109974095Y-61406761D02*
X109926476Y-61216285D01*
X109926476Y-61216285D02*
X109926476Y-60882952D01*
X109926476Y-60882952D02*
X109974095Y-60692476D01*
X109974095Y-60692476D02*
X110069333Y-60597238D01*
X110069333Y-60597238D02*
X110164571Y-60549619D01*
X111545523Y-61549619D02*
X110974095Y-61549619D01*
X111259809Y-61549619D02*
X111259809Y-60549619D01*
X111259809Y-60549619D02*
X111164571Y-60692476D01*
X111164571Y-60692476D02*
X111069333Y-60787714D01*
X111069333Y-60787714D02*
X110974095Y-60835333D01*
%TO.C,R3*%
X121493619Y-64428666D02*
X121017428Y-64761999D01*
X121493619Y-65000094D02*
X120493619Y-65000094D01*
X120493619Y-65000094D02*
X120493619Y-64619142D01*
X120493619Y-64619142D02*
X120541238Y-64523904D01*
X120541238Y-64523904D02*
X120588857Y-64476285D01*
X120588857Y-64476285D02*
X120684095Y-64428666D01*
X120684095Y-64428666D02*
X120826952Y-64428666D01*
X120826952Y-64428666D02*
X120922190Y-64476285D01*
X120922190Y-64476285D02*
X120969809Y-64523904D01*
X120969809Y-64523904D02*
X121017428Y-64619142D01*
X121017428Y-64619142D02*
X121017428Y-65000094D01*
X120493619Y-64095332D02*
X120493619Y-63476285D01*
X120493619Y-63476285D02*
X120874571Y-63809618D01*
X120874571Y-63809618D02*
X120874571Y-63666761D01*
X120874571Y-63666761D02*
X120922190Y-63571523D01*
X120922190Y-63571523D02*
X120969809Y-63523904D01*
X120969809Y-63523904D02*
X121065047Y-63476285D01*
X121065047Y-63476285D02*
X121303142Y-63476285D01*
X121303142Y-63476285D02*
X121398380Y-63523904D01*
X121398380Y-63523904D02*
X121446000Y-63571523D01*
X121446000Y-63571523D02*
X121493619Y-63666761D01*
X121493619Y-63666761D02*
X121493619Y-63952475D01*
X121493619Y-63952475D02*
X121446000Y-64047713D01*
X121446000Y-64047713D02*
X121398380Y-64095332D01*
%TO.C,R4*%
X123246219Y-61355266D02*
X122770028Y-61688599D01*
X123246219Y-61926694D02*
X122246219Y-61926694D01*
X122246219Y-61926694D02*
X122246219Y-61545742D01*
X122246219Y-61545742D02*
X122293838Y-61450504D01*
X122293838Y-61450504D02*
X122341457Y-61402885D01*
X122341457Y-61402885D02*
X122436695Y-61355266D01*
X122436695Y-61355266D02*
X122579552Y-61355266D01*
X122579552Y-61355266D02*
X122674790Y-61402885D01*
X122674790Y-61402885D02*
X122722409Y-61450504D01*
X122722409Y-61450504D02*
X122770028Y-61545742D01*
X122770028Y-61545742D02*
X122770028Y-61926694D01*
X122579552Y-60498123D02*
X123246219Y-60498123D01*
X122198600Y-60736218D02*
X122912885Y-60974313D01*
X122912885Y-60974313D02*
X122912885Y-60355266D01*
%TO.C,C1*%
X114032380Y-68238666D02*
X114080000Y-68286285D01*
X114080000Y-68286285D02*
X114127619Y-68429142D01*
X114127619Y-68429142D02*
X114127619Y-68524380D01*
X114127619Y-68524380D02*
X114080000Y-68667237D01*
X114080000Y-68667237D02*
X113984761Y-68762475D01*
X113984761Y-68762475D02*
X113889523Y-68810094D01*
X113889523Y-68810094D02*
X113699047Y-68857713D01*
X113699047Y-68857713D02*
X113556190Y-68857713D01*
X113556190Y-68857713D02*
X113365714Y-68810094D01*
X113365714Y-68810094D02*
X113270476Y-68762475D01*
X113270476Y-68762475D02*
X113175238Y-68667237D01*
X113175238Y-68667237D02*
X113127619Y-68524380D01*
X113127619Y-68524380D02*
X113127619Y-68429142D01*
X113127619Y-68429142D02*
X113175238Y-68286285D01*
X113175238Y-68286285D02*
X113222857Y-68238666D01*
X114127619Y-67286285D02*
X114127619Y-67857713D01*
X114127619Y-67571999D02*
X113127619Y-67571999D01*
X113127619Y-67571999D02*
X113270476Y-67667237D01*
X113270476Y-67667237D02*
X113365714Y-67762475D01*
X113365714Y-67762475D02*
X113413333Y-67857713D01*
%TO.C,CO2*%
X121398380Y-67873476D02*
X121446000Y-67921095D01*
X121446000Y-67921095D02*
X121493619Y-68063952D01*
X121493619Y-68063952D02*
X121493619Y-68159190D01*
X121493619Y-68159190D02*
X121446000Y-68302047D01*
X121446000Y-68302047D02*
X121350761Y-68397285D01*
X121350761Y-68397285D02*
X121255523Y-68444904D01*
X121255523Y-68444904D02*
X121065047Y-68492523D01*
X121065047Y-68492523D02*
X120922190Y-68492523D01*
X120922190Y-68492523D02*
X120731714Y-68444904D01*
X120731714Y-68444904D02*
X120636476Y-68397285D01*
X120636476Y-68397285D02*
X120541238Y-68302047D01*
X120541238Y-68302047D02*
X120493619Y-68159190D01*
X120493619Y-68159190D02*
X120493619Y-68063952D01*
X120493619Y-68063952D02*
X120541238Y-67921095D01*
X120541238Y-67921095D02*
X120588857Y-67873476D01*
X120493619Y-67254428D02*
X120493619Y-67063952D01*
X120493619Y-67063952D02*
X120541238Y-66968714D01*
X120541238Y-66968714D02*
X120636476Y-66873476D01*
X120636476Y-66873476D02*
X120826952Y-66825857D01*
X120826952Y-66825857D02*
X121160285Y-66825857D01*
X121160285Y-66825857D02*
X121350761Y-66873476D01*
X121350761Y-66873476D02*
X121446000Y-66968714D01*
X121446000Y-66968714D02*
X121493619Y-67063952D01*
X121493619Y-67063952D02*
X121493619Y-67254428D01*
X121493619Y-67254428D02*
X121446000Y-67349666D01*
X121446000Y-67349666D02*
X121350761Y-67444904D01*
X121350761Y-67444904D02*
X121160285Y-67492523D01*
X121160285Y-67492523D02*
X120826952Y-67492523D01*
X120826952Y-67492523D02*
X120636476Y-67444904D01*
X120636476Y-67444904D02*
X120541238Y-67349666D01*
X120541238Y-67349666D02*
X120493619Y-67254428D01*
X120588857Y-66444904D02*
X120541238Y-66397285D01*
X120541238Y-66397285D02*
X120493619Y-66302047D01*
X120493619Y-66302047D02*
X120493619Y-66063952D01*
X120493619Y-66063952D02*
X120541238Y-65968714D01*
X120541238Y-65968714D02*
X120588857Y-65921095D01*
X120588857Y-65921095D02*
X120684095Y-65873476D01*
X120684095Y-65873476D02*
X120779333Y-65873476D01*
X120779333Y-65873476D02*
X120922190Y-65921095D01*
X120922190Y-65921095D02*
X121493619Y-66492523D01*
X121493619Y-66492523D02*
X121493619Y-65873476D01*
%TO.C,R1*%
X110831333Y-59898619D02*
X110498000Y-59422428D01*
X110259905Y-59898619D02*
X110259905Y-58898619D01*
X110259905Y-58898619D02*
X110640857Y-58898619D01*
X110640857Y-58898619D02*
X110736095Y-58946238D01*
X110736095Y-58946238D02*
X110783714Y-58993857D01*
X110783714Y-58993857D02*
X110831333Y-59089095D01*
X110831333Y-59089095D02*
X110831333Y-59231952D01*
X110831333Y-59231952D02*
X110783714Y-59327190D01*
X110783714Y-59327190D02*
X110736095Y-59374809D01*
X110736095Y-59374809D02*
X110640857Y-59422428D01*
X110640857Y-59422428D02*
X110259905Y-59422428D01*
X111783714Y-59898619D02*
X111212286Y-59898619D01*
X111498000Y-59898619D02*
X111498000Y-58898619D01*
X111498000Y-58898619D02*
X111402762Y-59041476D01*
X111402762Y-59041476D02*
X111307524Y-59136714D01*
X111307524Y-59136714D02*
X111212286Y-59184333D01*
D11*
%TO.C,J1*%
X126285666Y-68931619D02*
X126285666Y-69645904D01*
X126285666Y-69645904D02*
X126238047Y-69788761D01*
X126238047Y-69788761D02*
X126142809Y-69884000D01*
X126142809Y-69884000D02*
X125999952Y-69931619D01*
X125999952Y-69931619D02*
X125904714Y-69931619D01*
X127285666Y-69931619D02*
X126714238Y-69931619D01*
X126999952Y-69931619D02*
X126999952Y-68931619D01*
X126999952Y-68931619D02*
X126904714Y-69074476D01*
X126904714Y-69074476D02*
X126809476Y-69169714D01*
X126809476Y-69169714D02*
X126714238Y-69217333D01*
D10*
%TO.C,C2*%
X116826380Y-69500666D02*
X116874000Y-69548285D01*
X116874000Y-69548285D02*
X116921619Y-69691142D01*
X116921619Y-69691142D02*
X116921619Y-69786380D01*
X116921619Y-69786380D02*
X116874000Y-69929237D01*
X116874000Y-69929237D02*
X116778761Y-70024475D01*
X116778761Y-70024475D02*
X116683523Y-70072094D01*
X116683523Y-70072094D02*
X116493047Y-70119713D01*
X116493047Y-70119713D02*
X116350190Y-70119713D01*
X116350190Y-70119713D02*
X116159714Y-70072094D01*
X116159714Y-70072094D02*
X116064476Y-70024475D01*
X116064476Y-70024475D02*
X115969238Y-69929237D01*
X115969238Y-69929237D02*
X115921619Y-69786380D01*
X115921619Y-69786380D02*
X115921619Y-69691142D01*
X115921619Y-69691142D02*
X115969238Y-69548285D01*
X115969238Y-69548285D02*
X116016857Y-69500666D01*
X116016857Y-69119713D02*
X115969238Y-69072094D01*
X115969238Y-69072094D02*
X115921619Y-68976856D01*
X115921619Y-68976856D02*
X115921619Y-68738761D01*
X115921619Y-68738761D02*
X115969238Y-68643523D01*
X115969238Y-68643523D02*
X116016857Y-68595904D01*
X116016857Y-68595904D02*
X116112095Y-68548285D01*
X116112095Y-68548285D02*
X116207333Y-68548285D01*
X116207333Y-68548285D02*
X116350190Y-68595904D01*
X116350190Y-68595904D02*
X116921619Y-69167332D01*
X116921619Y-69167332D02*
X116921619Y-68548285D01*
%TO.C,RP1*%
X111855333Y-63708619D02*
X111522000Y-63232428D01*
X111283905Y-63708619D02*
X111283905Y-62708619D01*
X111283905Y-62708619D02*
X111664857Y-62708619D01*
X111664857Y-62708619D02*
X111760095Y-62756238D01*
X111760095Y-62756238D02*
X111807714Y-62803857D01*
X111807714Y-62803857D02*
X111855333Y-62899095D01*
X111855333Y-62899095D02*
X111855333Y-63041952D01*
X111855333Y-63041952D02*
X111807714Y-63137190D01*
X111807714Y-63137190D02*
X111760095Y-63184809D01*
X111760095Y-63184809D02*
X111664857Y-63232428D01*
X111664857Y-63232428D02*
X111283905Y-63232428D01*
X112283905Y-63708619D02*
X112283905Y-62708619D01*
X112283905Y-62708619D02*
X112664857Y-62708619D01*
X112664857Y-62708619D02*
X112760095Y-62756238D01*
X112760095Y-62756238D02*
X112807714Y-62803857D01*
X112807714Y-62803857D02*
X112855333Y-62899095D01*
X112855333Y-62899095D02*
X112855333Y-63041952D01*
X112855333Y-63041952D02*
X112807714Y-63137190D01*
X112807714Y-63137190D02*
X112760095Y-63184809D01*
X112760095Y-63184809D02*
X112664857Y-63232428D01*
X112664857Y-63232428D02*
X112283905Y-63232428D01*
X113807714Y-63708619D02*
X113236286Y-63708619D01*
X113522000Y-63708619D02*
X113522000Y-62708619D01*
X113522000Y-62708619D02*
X113426762Y-62851476D01*
X113426762Y-62851476D02*
X113331524Y-62946714D01*
X113331524Y-62946714D02*
X113236286Y-62994333D01*
%TO.C,CP1*%
X117824333Y-69963380D02*
X117776714Y-70011000D01*
X117776714Y-70011000D02*
X117633857Y-70058619D01*
X117633857Y-70058619D02*
X117538619Y-70058619D01*
X117538619Y-70058619D02*
X117395762Y-70011000D01*
X117395762Y-70011000D02*
X117300524Y-69915761D01*
X117300524Y-69915761D02*
X117252905Y-69820523D01*
X117252905Y-69820523D02*
X117205286Y-69630047D01*
X117205286Y-69630047D02*
X117205286Y-69487190D01*
X117205286Y-69487190D02*
X117252905Y-69296714D01*
X117252905Y-69296714D02*
X117300524Y-69201476D01*
X117300524Y-69201476D02*
X117395762Y-69106238D01*
X117395762Y-69106238D02*
X117538619Y-69058619D01*
X117538619Y-69058619D02*
X117633857Y-69058619D01*
X117633857Y-69058619D02*
X117776714Y-69106238D01*
X117776714Y-69106238D02*
X117824333Y-69153857D01*
X118252905Y-70058619D02*
X118252905Y-69058619D01*
X118252905Y-69058619D02*
X118633857Y-69058619D01*
X118633857Y-69058619D02*
X118729095Y-69106238D01*
X118729095Y-69106238D02*
X118776714Y-69153857D01*
X118776714Y-69153857D02*
X118824333Y-69249095D01*
X118824333Y-69249095D02*
X118824333Y-69391952D01*
X118824333Y-69391952D02*
X118776714Y-69487190D01*
X118776714Y-69487190D02*
X118729095Y-69534809D01*
X118729095Y-69534809D02*
X118633857Y-69582428D01*
X118633857Y-69582428D02*
X118252905Y-69582428D01*
X119776714Y-70058619D02*
X119205286Y-70058619D01*
X119491000Y-70058619D02*
X119491000Y-69058619D01*
X119491000Y-69058619D02*
X119395762Y-69201476D01*
X119395762Y-69201476D02*
X119300524Y-69296714D01*
X119300524Y-69296714D02*
X119205286Y-69344333D01*
%TO.C,R2*%
X111593333Y-70058619D02*
X111260000Y-69582428D01*
X111021905Y-70058619D02*
X111021905Y-69058619D01*
X111021905Y-69058619D02*
X111402857Y-69058619D01*
X111402857Y-69058619D02*
X111498095Y-69106238D01*
X111498095Y-69106238D02*
X111545714Y-69153857D01*
X111545714Y-69153857D02*
X111593333Y-69249095D01*
X111593333Y-69249095D02*
X111593333Y-69391952D01*
X111593333Y-69391952D02*
X111545714Y-69487190D01*
X111545714Y-69487190D02*
X111498095Y-69534809D01*
X111498095Y-69534809D02*
X111402857Y-69582428D01*
X111402857Y-69582428D02*
X111021905Y-69582428D01*
X111974286Y-69153857D02*
X112021905Y-69106238D01*
X112021905Y-69106238D02*
X112117143Y-69058619D01*
X112117143Y-69058619D02*
X112355238Y-69058619D01*
X112355238Y-69058619D02*
X112450476Y-69106238D01*
X112450476Y-69106238D02*
X112498095Y-69153857D01*
X112498095Y-69153857D02*
X112545714Y-69249095D01*
X112545714Y-69249095D02*
X112545714Y-69344333D01*
X112545714Y-69344333D02*
X112498095Y-69487190D01*
X112498095Y-69487190D02*
X111926667Y-70058619D01*
X111926667Y-70058619D02*
X112545714Y-70058619D01*
%TO.C,CF1*%
X116117761Y-59041380D02*
X116070142Y-59089000D01*
X116070142Y-59089000D02*
X115927285Y-59136619D01*
X115927285Y-59136619D02*
X115832047Y-59136619D01*
X115832047Y-59136619D02*
X115689190Y-59089000D01*
X115689190Y-59089000D02*
X115593952Y-58993761D01*
X115593952Y-58993761D02*
X115546333Y-58898523D01*
X115546333Y-58898523D02*
X115498714Y-58708047D01*
X115498714Y-58708047D02*
X115498714Y-58565190D01*
X115498714Y-58565190D02*
X115546333Y-58374714D01*
X115546333Y-58374714D02*
X115593952Y-58279476D01*
X115593952Y-58279476D02*
X115689190Y-58184238D01*
X115689190Y-58184238D02*
X115832047Y-58136619D01*
X115832047Y-58136619D02*
X115927285Y-58136619D01*
X115927285Y-58136619D02*
X116070142Y-58184238D01*
X116070142Y-58184238D02*
X116117761Y-58231857D01*
X116879666Y-58612809D02*
X116546333Y-58612809D01*
X116546333Y-59136619D02*
X116546333Y-58136619D01*
X116546333Y-58136619D02*
X117022523Y-58136619D01*
X117927285Y-59136619D02*
X117355857Y-59136619D01*
X117641571Y-59136619D02*
X117641571Y-58136619D01*
X117641571Y-58136619D02*
X117546333Y-58279476D01*
X117546333Y-58279476D02*
X117451095Y-58374714D01*
X117451095Y-58374714D02*
X117355857Y-58422333D01*
D12*
%TO.C,CO1*%
X113545233Y-60577000D02*
X113837767Y-60577000D01*
X113545233Y-61597000D02*
X113837767Y-61597000D01*
%TO.C,U1*%
X114209000Y-65266000D02*
X114209000Y-64066000D01*
X115709000Y-65266000D02*
X114209000Y-65266000D01*
X114589000Y-64816000D02*
X114589000Y-62446000D01*
X117829000Y-63066000D02*
X117829000Y-64066000D01*
%TO.C,R3*%
X118984500Y-64008724D02*
X118984500Y-63499276D01*
X120029500Y-64008724D02*
X120029500Y-63499276D01*
D13*
%TO.C,TP2*%
X117757563Y-59944000D02*
G75*
G03*
X117757563Y-59944000I-409563J0D01*
G01*
%TO.C,TP4*%
X111051963Y-65125600D02*
G75*
G03*
X111051963Y-65125600I-409563J0D01*
G01*
D12*
%TO.C,R4*%
X120141276Y-60691500D02*
X120650724Y-60691500D01*
X120141276Y-61736500D02*
X120650724Y-61736500D01*
%TO.C,C1*%
X115572000Y-67163733D02*
X115572000Y-67456267D01*
X114552000Y-67163733D02*
X114552000Y-67456267D01*
%TO.C,CO2*%
X120017000Y-67063233D02*
X120017000Y-67355767D01*
X118997000Y-67063233D02*
X118997000Y-67355767D01*
%TO.C,R1*%
X113410276Y-58913500D02*
X113919724Y-58913500D01*
X113410276Y-59958500D02*
X113919724Y-59958500D01*
%TO.C,J1*%
X127949000Y-68640000D02*
X126619000Y-68640000D01*
X127949000Y-67310000D02*
X127949000Y-68640000D01*
X127949000Y-66040000D02*
X127949000Y-58360000D01*
X127949000Y-66040000D02*
X125289000Y-66040000D01*
X127949000Y-58360000D02*
X125289000Y-58360000D01*
X125289000Y-66040000D02*
X125289000Y-58360000D01*
%TO.C,C2*%
X116099000Y-67358335D02*
X116099000Y-67126665D01*
X116819000Y-67358335D02*
X116819000Y-67126665D01*
D13*
%TO.C,TP6*%
X110797963Y-67106800D02*
G75*
G03*
X110797963Y-67106800I-409563J0D01*
G01*
D12*
%TO.C,RP1*%
X113324621Y-64009000D02*
X112989379Y-64009000D01*
X113324621Y-64769000D02*
X112989379Y-64769000D01*
D13*
%TO.C,TP7*%
X119916563Y-59817000D02*
G75*
G03*
X119916563Y-59817000I-409563J0D01*
G01*
D12*
%TO.C,CP1*%
X117346000Y-67429767D02*
X117346000Y-67137233D01*
X118366000Y-67429767D02*
X118366000Y-67137233D01*
%TO.C,R2*%
X111312750Y-67437724D02*
X111312750Y-66928276D01*
X112357750Y-67437724D02*
X112357750Y-66928276D01*
D13*
%TO.C,TP3*%
X116487563Y-59944000D02*
G75*
G03*
X116487563Y-59944000I-409563J0D01*
G01*
D12*
%TO.C,CF1*%
X116537665Y-60727000D02*
X116769335Y-60727000D01*
X116537665Y-61447000D02*
X116769335Y-61447000D01*
%TD*%
M02*
