%TF.GenerationSoftware,KiCad,Pcbnew,7.0.1-3b83917a11~172~ubuntu22.04.1*%
%TF.CreationDate,2023-05-08T21:49:57+01:00*%
%TF.ProjectId,lm27762,6c6d3237-3736-4322-9e6b-696361645f70,rev?*%
%TF.SameCoordinates,Original*%
%TF.FileFunction,Paste,Top*%
%TF.FilePolarity,Positive*%
%FSLAX46Y46*%
G04 Gerber Fmt 4.6, Leading zero omitted, Abs format (unit mm)*
G04 Created by KiCad (PCBNEW 7.0.1-3b83917a11~172~ubuntu22.04.1) date 2023-05-08 21:49:57*
%MOMM*%
%LPD*%
G01*
G04 APERTURE LIST*
G04 Aperture macros list*
%AMRoundRect*
0 Rectangle with rounded corners*
0 $1 Rounding radius*
0 $2 $3 $4 $5 $6 $7 $8 $9 X,Y pos of 4 corners*
0 Add a 4 corners polygon primitive as box body*
4,1,4,$2,$3,$4,$5,$6,$7,$8,$9,$2,$3,0*
0 Add four circle primitives for the rounded corners*
1,1,$1+$1,$2,$3*
1,1,$1+$1,$4,$5*
1,1,$1+$1,$6,$7*
1,1,$1+$1,$8,$9*
0 Add four rect primitives between the rounded corners*
20,1,$1+$1,$2,$3,$4,$5,0*
20,1,$1+$1,$4,$5,$6,$7,0*
20,1,$1+$1,$6,$7,$8,$9,0*
20,1,$1+$1,$8,$9,$2,$3,0*%
G04 Aperture macros list end*
%ADD10RoundRect,0.237500X-0.300000X-0.237500X0.300000X-0.237500X0.300000X0.237500X-0.300000X0.237500X0*%
%ADD11R,0.800000X0.950000*%
%ADD12R,0.250000X0.500000*%
%ADD13RoundRect,0.237500X0.237500X-0.250000X0.237500X0.250000X-0.237500X0.250000X-0.237500X-0.250000X0*%
%ADD14C,0.500000*%
%ADD15RoundRect,0.237500X-0.250000X-0.237500X0.250000X-0.237500X0.250000X0.237500X-0.250000X0.237500X0*%
%ADD16RoundRect,0.237500X-0.237500X0.300000X-0.237500X-0.300000X0.237500X-0.300000X0.237500X0.300000X0*%
%ADD17RoundRect,0.155000X0.155000X-0.212500X0.155000X0.212500X-0.155000X0.212500X-0.155000X-0.212500X0*%
%ADD18RoundRect,0.160000X0.197500X0.160000X-0.197500X0.160000X-0.197500X-0.160000X0.197500X-0.160000X0*%
%ADD19RoundRect,0.237500X0.237500X-0.300000X0.237500X0.300000X-0.237500X0.300000X-0.237500X-0.300000X0*%
%ADD20RoundRect,0.155000X-0.212500X-0.155000X0.212500X-0.155000X0.212500X0.155000X-0.212500X0.155000X0*%
G04 APERTURE END LIST*
D10*
%TO.C,CO1*%
X112829000Y-61087000D03*
X114554000Y-61087000D03*
%TD*%
D11*
%TO.C,U1*%
X115709000Y-63566000D03*
X116709000Y-63566000D03*
D12*
X114959000Y-64516000D03*
X115459000Y-64516000D03*
X115959000Y-64516000D03*
X116459000Y-64516000D03*
X116959000Y-64516000D03*
X117459000Y-64516000D03*
X117459000Y-62616000D03*
X116959000Y-62616000D03*
X116459000Y-62616000D03*
X115959000Y-62616000D03*
X115459000Y-62616000D03*
X114959000Y-62616000D03*
%TD*%
D13*
%TO.C,R3*%
X119507000Y-64666500D03*
X119507000Y-62841500D03*
%TD*%
D14*
%TO.C,TP2*%
X117348000Y-59944000D03*
%TD*%
%TO.C,TP4*%
X110642400Y-65125600D03*
%TD*%
D15*
%TO.C,R4*%
X119483500Y-61214000D03*
X121308500Y-61214000D03*
%TD*%
D16*
%TO.C,C1*%
X115062000Y-66447500D03*
X115062000Y-68172500D03*
%TD*%
%TO.C,CO2*%
X119507000Y-66347000D03*
X119507000Y-68072000D03*
%TD*%
D15*
%TO.C,R1*%
X112752500Y-59436000D03*
X114577500Y-59436000D03*
%TD*%
D17*
%TO.C,C2*%
X116459000Y-67810000D03*
X116459000Y-66675000D03*
%TD*%
D14*
%TO.C,TP6*%
X110388400Y-67106800D03*
%TD*%
D18*
%TO.C,RP1*%
X112559500Y-64389000D03*
X113754500Y-64389000D03*
%TD*%
D14*
%TO.C,TP7*%
X119507000Y-59817000D03*
%TD*%
D19*
%TO.C,CP1*%
X117856000Y-68146000D03*
X117856000Y-66421000D03*
%TD*%
D13*
%TO.C,R2*%
X111835250Y-68095500D03*
X111835250Y-66270500D03*
%TD*%
D14*
%TO.C,TP3*%
X116078000Y-59944000D03*
%TD*%
D20*
%TO.C,CF1*%
X116086000Y-61087000D03*
X117221000Y-61087000D03*
%TD*%
M02*
