%TF.GenerationSoftware,KiCad,Pcbnew,7.0.1-3b83917a11~172~ubuntu22.04.1*%
%TF.CreationDate,2023-05-08T21:49:58+01:00*%
%TF.ProjectId,lm27762,6c6d3237-3736-4322-9e6b-696361645f70,rev?*%
%TF.SameCoordinates,Original*%
%TF.FileFunction,Legend,Bot*%
%TF.FilePolarity,Positive*%
%FSLAX46Y46*%
G04 Gerber Fmt 4.6, Leading zero omitted, Abs format (unit mm)*
G04 Created by KiCad (PCBNEW 7.0.1-3b83917a11~172~ubuntu22.04.1) date 2023-05-08 21:49:58*
%MOMM*%
%LPD*%
G01*
G04 APERTURE LIST*
%ADD10C,0.153000*%
G04 APERTURE END LIST*
D10*
X124772761Y-68580095D02*
X124820380Y-68675333D01*
X124820380Y-68675333D02*
X124820380Y-68818190D01*
X124820380Y-68818190D02*
X124772761Y-68961047D01*
X124772761Y-68961047D02*
X124677523Y-69056285D01*
X124677523Y-69056285D02*
X124582285Y-69103904D01*
X124582285Y-69103904D02*
X124391809Y-69151523D01*
X124391809Y-69151523D02*
X124248952Y-69151523D01*
X124248952Y-69151523D02*
X124058476Y-69103904D01*
X124058476Y-69103904D02*
X123963238Y-69056285D01*
X123963238Y-69056285D02*
X123868000Y-68961047D01*
X123868000Y-68961047D02*
X123820380Y-68818190D01*
X123820380Y-68818190D02*
X123820380Y-68722952D01*
X123820380Y-68722952D02*
X123868000Y-68580095D01*
X123868000Y-68580095D02*
X123915619Y-68532476D01*
X123915619Y-68532476D02*
X124248952Y-68532476D01*
X124248952Y-68532476D02*
X124248952Y-68722952D01*
X123820380Y-68103904D02*
X124820380Y-68103904D01*
X124820380Y-68103904D02*
X123820380Y-67532476D01*
X123820380Y-67532476D02*
X124820380Y-67532476D01*
X123820380Y-67056285D02*
X124820380Y-67056285D01*
X124820380Y-67056285D02*
X124820380Y-66818190D01*
X124820380Y-66818190D02*
X124772761Y-66675333D01*
X124772761Y-66675333D02*
X124677523Y-66580095D01*
X124677523Y-66580095D02*
X124582285Y-66532476D01*
X124582285Y-66532476D02*
X124391809Y-66484857D01*
X124391809Y-66484857D02*
X124248952Y-66484857D01*
X124248952Y-66484857D02*
X124058476Y-66532476D01*
X124058476Y-66532476D02*
X123963238Y-66580095D01*
X123963238Y-66580095D02*
X123868000Y-66675333D01*
X123868000Y-66675333D02*
X123820380Y-66818190D01*
X123820380Y-66818190D02*
X123820380Y-67056285D01*
X124201333Y-65294380D02*
X124201333Y-64532476D01*
X124201333Y-62532475D02*
X124201333Y-61770571D01*
X123820380Y-62151523D02*
X124582285Y-62151523D01*
X124820380Y-60675332D02*
X123820380Y-60341999D01*
X123820380Y-60341999D02*
X124820380Y-60008666D01*
X123820380Y-59675332D02*
X124820380Y-59675332D01*
X123820380Y-59199142D02*
X124820380Y-59199142D01*
X124820380Y-59199142D02*
X123820380Y-58627714D01*
X123820380Y-58627714D02*
X124820380Y-58627714D01*
M02*
